HIERARCHY
ROOT Hips
{
	OFFSET 0.000000 0.000000 0.000000
	CHANNELS 6 Xposition Yposition Zposition Xrotation Yrotation Zrotation
	JOINT LeftUpLeg_virtual
	{
		OFFSET 0.000000 0.000000 0.000000
		CHANNELS 3 Xrotation Yrotation Zrotation
		JOINT LeftUpLeg
		{
			OFFSET 11.394100 -6.187798 -0.413800
			CHANNELS 3 Xrotation Yrotation Zrotation
			JOINT LeftLeg
			{
				OFFSET 0.430247 -32.302673 3.732800
				CHANNELS 3 Xrotation Yrotation Zrotation
				JOINT LeftFoot
				{
					OFFSET -0.430247 -48.264931 -6.423300
					CHANNELS 3 Xrotation Yrotation Zrotation
					JOINT LeftToeBase
					{
						OFFSET 4.230900 -16.068199 23.438400
						CHANNELS 3 Xrotation Yrotation Zrotation
						JOINT LeftToe_End
						{
							OFFSET 4.510700 0.695400 19.974600
							CHANNELS 3 Xrotation Yrotation Zrotation
							End Site
							{
								OFFSET 0 0 0
							}
						}
					}
				}
			}
		}
	}
	JOINT RightUpLeg_virtual
	{
		OFFSET 0.000000 0.000000 0.000000
		CHANNELS 3 Xrotation Yrotation Zrotation
		JOINT RightUpLeg
		{
			OFFSET -11.333700 -6.187798 -0.413800
			CHANNELS 3 Xrotation Yrotation Zrotation
			JOINT RightLeg
			{
				OFFSET -0.430392 -32.302628 3.733000
				CHANNELS 3 Xrotation Yrotation Zrotation
				JOINT RightFoot
				{
					OFFSET 0.430392 -48.264973 -6.423500
					CHANNELS 3 Xrotation Yrotation Zrotation
					JOINT RightToeBase
					{
						OFFSET -4.230900 -16.068199 23.438400
						CHANNELS 3 Xrotation Yrotation Zrotation
						JOINT RightToe_End
						{
							OFFSET -4.510700 0.695400 19.974600
							CHANNELS 3 Xrotation Yrotation Zrotation
							End Site
							{
								OFFSET 0 0 0
							}
						}
					}
				}
			}
		}
	}
	JOINT Spine_virtual
	{
		OFFSET 0.000000 0.000000 0.000000
		CHANNELS 3 Xrotation Yrotation Zrotation
		JOINT Spine
		{
			OFFSET -0.002400 12.777504 0.315300
			CHANNELS 3 Xrotation Yrotation Zrotation
			JOINT Spine1
			{
				OFFSET -0.002067 5.816869 0.032633
				CHANNELS 3 Xrotation Yrotation Zrotation
				JOINT Spine1_split
				{
					OFFSET -0.002067 5.816869 0.032633
					CHANNELS 3 Xrotation Yrotation Zrotation
					JOINT Spine2
					{
						OFFSET -0.002067 5.816869 0.032633
						CHANNELS 3 Xrotation Yrotation Zrotation
						JOINT Neck_virtual
						{
							OFFSET 0.000000 0.000000 0.000000
							CHANNELS 3 Xrotation Yrotation Zrotation
							JOINT Neck
							{
								OFFSET -0.003700 21.199493 -0.826900
								CHANNELS 3 Xrotation Yrotation Zrotation
								JOINT Head
								{
									OFFSET 0.000000 20.442200 4.834800
									CHANNELS 3 Xrotation Yrotation Zrotation
									JOINT HeadTop_End
									{
										OFFSET 0.000000 34.668396 4.968400
										CHANNELS 3 Xrotation Yrotation Zrotation
										End Site
										{
											OFFSET 0 0 0
										}
									}
								}
							}
						}
						JOINT LeftShoulder_virtual
						{
							OFFSET 0.000000 0.000000 0.000000
							CHANNELS 3 Xrotation Yrotation Zrotation
							JOINT LeftShoulder
							{
								OFFSET 3.288150 8.794197 -1.372250
								CHANNELS 3 Xrotation Yrotation Zrotation
								JOINT LeftShoulder_split
								{
									OFFSET 3.288150 8.794197 -1.372250
									CHANNELS 3 Xrotation Yrotation Zrotation
									JOINT LeftArm
									{
										OFFSET 11.953299 -2.279007 -0.146200
										CHANNELS 3 Xrotation Yrotation Zrotation
										JOINT LeftForeArm
										{
											OFFSET 18.448900 0.000000 0.000000
											CHANNELS 3 Xrotation Yrotation Zrotation
											JOINT LeftHand
											{
												OFFSET 29.527798 0.000000 0.000000
												CHANNELS 3 Xrotation Yrotation Zrotation
												End Site
												{
													OFFSET 0 0 0
												}
											}
										}
									}
								}
							}
						}
						JOINT RightShoulder_virtual
						{
							OFFSET 0.000000 0.000000 0.000000
							CHANNELS 3 Xrotation Yrotation Zrotation
							JOINT RightShoulder
							{
								OFFSET -3.249400 8.794197 -1.372250
								CHANNELS 3 Xrotation Yrotation Zrotation
								JOINT RightShoulder_split
								{
									OFFSET -3.249400 8.794197 -1.372250
									CHANNELS 3 Xrotation Yrotation Zrotation
									JOINT RightArm
									{
										OFFSET -11.953299 -2.279007 -0.146200
										CHANNELS 3 Xrotation Yrotation Zrotation
										JOINT RightForeArm
										{
											OFFSET -18.448900 0.000000 0.000000
											CHANNELS 3 Xrotation Yrotation Zrotation
											JOINT RightHand
											{
												OFFSET -29.527802 0.000000 0.000000
												CHANNELS 3 Xrotation Yrotation Zrotation
												End Site
												{
													OFFSET 0 0 0
												}
											}
										}
									}
								}
							}
						}
					}
				}
			}
		}
	}
}
MOTION
Frames: 4
Frame Time: 0.03333333
-0.783109 103.810318 -13.967318 0.000000 0.000000 0.000000 -5.552437 -3.186017 4.293322 -10.440386 16.433964 -2.397609 14.102988 1.995426 4.879112 0.730969 0.882505 -0.972421 0.265445 -2.201892 0.171950 0.000000 0.000000 0.000000 -5.515760 -3.726691 4.148880 -9.609434 -9.984014 -5.080939 18.936923 2.725396 -4.125304 -5.531165 -14.427421 9.962132 0.170450 5.134773 -18.385959 0.000000 0.000000 0.000000 -6.896777 3.114025 4.698296 7.615981 -5.484382 -1.852214 9.665943 2.792345 -3.185505 0.067726 -0.879165 -0.046029 0.000000 0.000000 0.000000 10.917058 4.657158 -1.793076 3.576411 2.188188 6.773574 13.370444 -44.921420 2.308093 0.000000 0.000000 0.000000 9.967980 4.285590 -2.776104 1.074447 -9.869973 -23.529442 4.674688 -9.789263 -5.168866 -4.686971 -54.571039 -38.871310 13.906822 -15.610479 13.428423 0.000000 0.000000 0.000000 9.150425 2.696923 -3.566306 -1.370368 19.935777 23.684536 -6.836611 -2.583676 4.532212 0.474776 39.854229 46.069493 14.619021 29.275567 1.713733 0.000000 0.000000 0.000000 
-0.253409 104.501663 -14.010569 0.000000 0.000000 0.000000 -6.540190 -4.238583 5.217582 -6.985763 17.683449 -3.638515 10.883850 1.863424 4.686447 0.858197 0.912400 -0.826191 1.826709 -2.113748 0.343693 0.000000 0.000000 0.000000 -6.511837 -4.058331 5.030629 -7.477917 -10.892617 -5.774643 16.816744 3.034959 -3.911085 -5.935038 -13.723952 8.673395 0.785519 4.776560 -17.953282 0.000000 0.000000 0.000000 -8.227799 2.607388 5.175278 7.296545 -5.180611 -2.282405 8.486180 2.217001 -3.389072 0.139924 -0.885810 0.065738 0.000000 0.000000 0.000000 9.903504 4.118318 -1.776132 3.451284 2.665660 6.027862 11.888680 -41.596340 3.721880 0.000000 0.000000 0.000000 8.682376 3.817293 -2.739940 1.752150 -7.261149 -20.534942 3.954275 -9.097819 -3.997539 -5.908824 -51.993357 -44.301478 14.926979 -13.259065 14.902388 0.000000 0.000000 0.000000 7.768258 2.065325 -3.525257 -0.040396 18.217580 21.537425 -7.551929 -3.148165 3.322827 4.408767 42.699501 46.646309 16.477468 31.290094 0.486222 0.000000 0.000000 0.000000 
0.125724 104.883171 -13.936205 0.000000 0.000000 0.000000 -7.178630 -5.192986 5.961105 -4.347500 18.333780 -4.579520 8.681777 1.795663 4.461413 0.919719 0.968576 -0.487419 2.933334 -1.987400 0.226348 0.000000 0.000000 0.000000 -7.240068 -4.268988 5.828212 -6.290387 -11.785901 -6.571837 15.655086 3.489191 -3.726074 -5.907703 -13.148833 8.637648 0.300892 4.677208 -18.276787 0.000000 0.000000 0.000000 -8.976472 2.149810 5.375031 6.823777 -4.830105 -2.625784 7.463559 1.770321 -3.550821 0.145216 -0.821590 0.159486 0.000000 0.000000 0.000000 9.086275 3.705783 -1.780991 3.715949 2.852183 5.278741 8.902103 -39.202544 4.176340 0.000000 0.000000 0.000000 7.500923 3.458468 -2.736547 2.239132 -5.522278 -16.767085 3.664420 -8.452953 -2.859081 -5.622325 -48.018303 -48.256772 17.175516 -13.040885 16.432972 0.000000 0.000000 0.000000 6.388242 1.596546 -3.385159 1.299011 15.813317 18.629641 -7.912472 -3.957822 2.343184 7.211872 43.880438 47.486323 17.498940 34.732454 0.084886 0.000000 0.000000 0.000000 
0.374874 105.010178 -13.833490 0.000000 0.000000 0.000000 -7.598939 -5.894136 6.428900 -2.885602 18.478899 -5.039742 7.785996 1.710413 4.240946 1.192744 0.900485 -0.189337 3.277629 -1.835271 -0.224307 0.000000 0.000000 0.000000 -7.728967 -4.414991 6.393077 -5.893052 -12.434216 -7.370827 15.317850 4.172336 -3.599568 -5.527718 -12.597788 9.789624 -0.914064 4.776499 -19.058198 0.000000 0.000000 0.000000 -9.221371 1.650152 5.353707 6.186215 -4.355420 -2.687891 6.653418 1.505189 -3.675885 0.158265 -0.792283 0.202087 0.000000 0.000000 0.000000 8.474763 3.457776 -1.822322 4.039676 2.759752 4.609899 4.548220 -37.570692 3.445635 0.000000 0.000000 0.000000 6.526608 3.208761 -2.857956 2.557611 -4.946317 -12.858576 3.463471 -7.807007 -2.344097 -4.653767 -42.520076 -50.981837 20.529464 -14.003043 17.884328 0.000000 0.000000 0.000000 5.152828 1.372144 -3.198057 2.424361 13.102227 15.368604 -8.480730 -4.720694 1.975636 8.605995 43.365568 48.479576 17.428652 37.685589 0.818313 0.000000 0.000000 0.000000 
